<svg xmlns="http://www.w3.org/2000/svg" version="1.1" xmlns:xlink="http://www.w3.org/1999/xlink" xmlns:svgjs="http://svgjs.dev/svgjs" width="1440" height="560" preserveAspectRatio="none" viewBox="0 0 1440 560"><g mask="url(&quot;#SvgjsMask1053&quot;)" fill="none"><rect width="1440" height="560" x="0" y="0" fill="rgba(219, 138, 8, 1)"></rect><path d="M0,414.342C110.696,412.729,216.058,539.299,316.05,491.783C413.174,445.63,401.373,301.503,444.628,203.055C487.095,106.4,597.175,19.796,568.006,-81.667C538.033,-185.926,385.963,-191.266,309.223,-267.943C240.748,-336.361,239.804,-473.16,147.384,-501.943C55.228,-530.644,-24.759,-426.891,-117.718,-400.909C-212.46,-374.429,-333.354,-418.793,-402.047,-348.376C-470.381,-278.327,-445.877,-162.016,-446.226,-64.158C-446.532,21.647,-422.363,100.67,-403.948,184.477C-380.069,293.148,-418.727,446.05,-322.024,501.079C-223.408,557.196,-113.453,415.995,0,414.342" fill="#a96a06"></path><path d="M1440 1012.3489999999999C1527.452 1007.56 1615.955 995.7819999999999 1689.187 947.7429999999999 1762.047 899.948 1802.2649999999999 820.711 1846.5439999999999 745.662 1895.864 662.0699999999999 1966.7179999999998 581.865 1962.26 484.90999999999997 1957.696 385.655 1885.699 305.221 1822.7559999999999 228.33999999999997 1758.248 149.54700000000003 1691.908 63.52699999999999 1594.091 35.212999999999965 1496.397 6.934999999999945 1393.887 42.5 1298.017 76.44999999999999 1206.408 108.88999999999999 1120.546 154.656 1054.771 226.197 987.679 299.171 936.0740000000001 387.398 921.924 485.512 907.771 583.649 930.9490000000001 683.579 976.075 771.867 1019.9580000000001 857.723 1087.031 931.654 1172.635 976.028 1254.135 1018.275 1348.338 1017.3679999999999 1440 1012.3489999999999" fill="#f7a520"></path></g><defs><mask id="SvgjsMask1053"><rect width="1440" height="560" fill="#ffffff"></rect></mask></defs></svg>