<?xml version="1.0" standalone="no"?>
<svg xmlns:xlink="http://www.w3.org/1999/xlink" id="wave" style="transform:rotate(180deg); transition: 0.3s" viewBox="0 0 1440 150" version="1.1" xmlns="http://www.w3.org/2000/svg"><defs><linearGradient id="sw-gradient-0" x1="0" x2="0" y1="1" y2="0"><stop stop-color="rgba(132.374, 0, 0, 1)" offset="0%"/><stop stop-color="rgba(125.543, 18.827, 18.827, 1)" offset="100%"/></linearGradient></defs><path style="transform:translate(0, 0px); opacity:1" fill="url(#sw-gradient-0)" d="M0,15L10.9,17.5C21.8,20,44,25,65,42.5C87.3,60,109,90,131,85C152.7,80,175,40,196,37.5C218.2,35,240,70,262,85C283.6,100,305,95,327,77.5C349.1,60,371,30,393,30C414.5,30,436,60,458,75C480,90,502,90,524,87.5C545.5,85,567,80,589,65C610.9,50,633,25,655,30C676.4,35,698,70,720,70C741.8,70,764,35,785,40C807.3,45,829,90,851,102.5C872.7,115,895,95,916,77.5C938.2,60,960,45,982,47.5C1003.6,50,1025,70,1047,70C1069.1,70,1091,50,1113,42.5C1134.5,35,1156,40,1178,37.5C1200,35,1222,25,1244,35C1265.5,45,1287,75,1309,77.5C1330.9,80,1353,55,1375,60C1396.4,65,1418,100,1440,117.5C1461.8,135,1484,135,1505,117.5C1527.3,100,1549,65,1560,47.5L1570.9,30L1570.9,150L1560,150C1549.1,150,1527,150,1505,150C1483.6,150,1462,150,1440,150C1418.2,150,1396,150,1375,150C1352.7,150,1331,150,1309,150C1287.3,150,1265,150,1244,150C1221.8,150,1200,150,1178,150C1156.4,150,1135,150,1113,150C1090.9,150,1069,150,1047,150C1025.5,150,1004,150,982,150C960,150,938,150,916,150C894.5,150,873,150,851,150C829.1,150,807,150,785,150C763.6,150,742,150,720,150C698.2,150,676,150,655,150C632.7,150,611,150,589,150C567.3,150,545,150,524,150C501.8,150,480,150,458,150C436.4,150,415,150,393,150C370.9,150,349,150,327,150C305.5,150,284,150,262,150C240,150,218,150,196,150C174.5,150,153,150,131,150C109.1,150,87,150,65,150C43.6,150,22,150,11,150L0,150Z"/></svg>